# xmcd CD database file
#
# Track frame offsets:
#	150
#	20614
#	38303
#	56161
#	74599
#	92864
#	109986
#	127848
#	138424
#	152757
#	171359
#	189518
#	206089
#	230690
#	252070
#	274022
#
# Disc length: 3859 seconds
#
# Revision: 0
# Processed by: cddbd v1.5.2PL0 Copyright (c) Steve Scherf et al.
# Submitted via: CDex 1.51
#
DISCID=e50f1110
DTITLE=Moody Bluegrass - TWO... Much Love
DYEAR=2011
DGENRE=Country
TTITLE0=Vince Gill - I Know You're Out There
TTITLE1=Tim O'Brian - Dear Diary
TTITLE2=Harley Allen - Meanwhile
TTITLE3=Peter Rowan - Dawn is a Feeling
TTITLE4=Justin Hayward - Cold Outside Your Heart
TTITLE5=Ricky Skaggs - You and Me
TTITLE6=Jan Harvey - Say It With Love
TTITLE7=John Lodge - Send Me No Wine
TTITLE8=Ronnie Bowman - Story In Your Eyes
TTITLE9=Sam Bush - Nice To Be Here
TTITLE10=Emma Harvey - Voices in the Sky
TTITLE11=Larry Cordel - Have You Heard
TTITLE12=Graeme Edge - Higher and Higher
TTITLE13=John Cowan - Tuesday Afternoon
TTITLE14=Jon Randall - Highway
TTITLE15=David Harvey - Lost Chord
EXTD=YEAR: 2011
EXTT0=
EXTT1=
EXTT2=
EXTT3=
EXTT4=
EXTT5=
EXTT6=
EXTT7=
EXTT8=
EXTT9=
EXTT10=
EXTT11=
EXTT12=
EXTT13=
EXTT14=
EXTT15=
PLAYORDER=
